<svg version="1.1" xmlns="http://www.w3.org/2000/svg" xmlns:xlink="http://www.w3.org/1999/xlink" width="695.61318" height="475.68769" viewBox="0,0,695.61318,475.68769"><g transform="translate(-5.83996,119.5)"><g data-paper-data="{&quot;isPaintingLayer&quot;:true}" fill-rule="nonzero" stroke-linejoin="miter" stroke-miterlimit="10" stroke-dasharray="" stroke-dashoffset="0" style="mix-blend-mode: normal"><path d="M206.6202,326.01021l-195.78023,2.82569v-297.6718l456.86969,0.94499l1.45039,290.11189l-206.41474,2.97918" fill="none" stroke="#000000" stroke-width="10" stroke-linecap="round"/><path d="M307.24867,254.08661l79.76551,-91.27231" fill="none" stroke="#000000" stroke-width="10" stroke-linecap="round"/><path d="M230.6153,116.04054l2,-107" fill="none" stroke="#000000" stroke-width="10" stroke-linecap="round"/><path d="M696.45315,-104.5v-10" fill="none" stroke="#000000" stroke-width="10" stroke-linecap="round"/><path d="M62.02916,202.21847v-121h83v121z" fill="none" stroke="#000000" stroke-width="10" stroke-linecap="butt"/><path d="M341.50245,114.475c0,16.58513 -13.10878,30.03003 -29.27928,30.03003c-16.1705,0 -29.27928,-13.4449 -29.27928,-30.03003c0,-16.58513 13.10878,-30.03003 29.27928,-30.03003c16.1705,0 29.27928,13.4449 29.27928,30.03003z" fill="none" stroke="#000000" stroke-width="10" stroke-linecap="butt"/><text transform="translate(74.23518,292.97632) scale(1.92643,1.92643)" font-size="40" xml:space="preserve" fill="#000000" fill-rule="nonzero" stroke="none" stroke-width="1" stroke-linecap="butt" stroke-linejoin="miter" stroke-miterlimit="10" stroke-dasharray="" stroke-dashoffset="0" font-family="Sans Serif" font-weight="normal" text-anchor="start" style="mix-blend-mode: normal"><tspan x="0" dy="0">ㅋ</tspan></text><path d="M205.52727,356.18769v-33.14513h60.76607v33.14513z" fill="#66ddff" stroke="none" stroke-width="0" stroke-linecap="butt"/></g></g></svg>